<?xml version="1.0" standalone="no"?>
<svg version="1.0" id="twitch" xmlns="http://www.w3.org/2000/svg"
 width="20pt" height="20pt" viewBox="0 0 1201.000000 1269.000000"
 preserveAspectRatio="xMidYMid meet">

<g transform="translate(0.000000,1269.000000) scale(0.100000,-0.100000)"
fill="#000000" stroke="none">
<path d="M1001 12648 c-5 -13 -230 -547 -500 -1188 l-491 -1165 0 -4307 0
-4308 1500 0 1500 0 0 -835 0 -835 832 0 833 0 835 835 835 835 1170 0 1170 0
1663 1663 1662 1662 0 3833 0 3832 -5500 0 -5500 0 -9 -22z m9679 -4140 l0
-2833 -837 -837 -838 -838 -1500 0 -1500 0 -832 -832 -833 -833 0 832 0 833
-997 2 -998 3 -3 3668 -2 3667 4170 0 4170 0 0 -2832z"/>
<path d="M4350 7675 l0 -1665 830 0 830 0 0 1665 0 1665 -830 0 -830 0 0
-1665z"/>
<path d="M7010 7675 l0 -1665 830 0 830 0 0 1665 0 1665 -830 0 -830 0 0
-1665z"/>
</g>
</svg>
